# xmcd CD database file
#
# Track frame offsets:
#	150
#	1654
#	22872
#	37892
#	50454
#	64713
#	83677
#	103228
#	119604
#	135952
#	153319
#	166186
#
# Disc length: 2443 seconds
#
# Revision: 1
# Processed by: cddbd v1.5.2PL0 Copyright (c) Steve Scherf et al.
# Submitted via: CDex 1.51
#
DISCID=8209890c
DTITLE=Various Artist - Scena Country
DYEAR=2000
DGENRE=Country
TTITLE0=LONSTAR - Sygnal programu TV Scena Country
TTITLE1=CEZARY MAKIEWICZ - Wszystkie drogi prowadza do Mragowa
TTITLE2=COLORADO BAND - Recepta na zdrowie
TTITLE3=FAIR PLAY - Bo mi³osc wszystko zmienia
TTITLE4=COACH - Damy mego serca
TTITLE5=WHISKEY RIVER - Bia³y dom i Sw Jan
TTITLE6=LONSTAR - Dlatego kocham ciebie
TTITLE7=JOHNNY WALKER - Wczorajsze dni
TTITLE8=MARIUSZ KALAGA - To do ciebie przyszedl blues
TTITLE9=MAGDA ANIO£ - Dominka
TTITLE10=ZAYAZD - Hej stary!
TTITLE11=Nauka gry piosenki "Wszystkie drogi..."
EXTD=YEAR: 2000
EXTT0=
EXTT1=
EXTT2=
EXTT3=
EXTT4=
EXTT5=
EXTT6=
EXTT7=
EXTT8=
EXTT9=
EXTT10=
EXTT11=
PLAYORDER=
